<svg version="1.1" xmlns="http://www.w3.org/2000/svg" xmlns:xlink="http://www.w3.org/1999/xlink" width="652" height="609"><defs/><g><text fill="#eeeeee" stroke="none" font-family="Arial" font-size="24px" font-style="normal" font-weight="normal" text-decoration="none" x="0" y="0">UNREGISTERED</text><text fill="#eeeeee" stroke="none" font-family="Arial" font-size="24px" font-style="normal" font-weight="normal" text-decoration="none" x="0" y="30">UNREGISTERED</text><text fill="#eeeeee" stroke="none" font-family="Arial" font-size="24px" font-style="normal" font-weight="normal" text-decoration="none" x="0" y="60">UNREGISTERED</text><text fill="#eeeeee" stroke="none" font-family="Arial" font-size="24px" font-style="normal" font-weight="normal" text-decoration="none" x="0" y="90">UNREGISTERED</text><text fill="#eeeeee" stroke="none" font-family="Arial" font-size="24px" font-style="normal" font-weight="normal" text-decoration="none" x="0" y="120">UNREGISTERED</text><text fill="#eeeeee" stroke="none" font-family="Arial" font-size="24px" font-style="normal" font-weight="normal" text-decoration="none" x="0" y="150">UNREGISTERED</text><text fill="#eeeeee" stroke="none" font-family="Arial" font-size="24px" font-style="normal" font-weight="normal" text-decoration="none" x="0" y="180">UNREGISTERED</text><text fill="#eeeeee" stroke="none" font-family="Arial" font-size="24px" font-style="normal" font-weight="normal" text-decoration="none" x="0" y="210">UNREGISTERED</text><text fill="#eeeeee" stroke="none" font-family="Arial" font-size="24px" font-style="normal" font-weight="normal" text-decoration="none" x="0" y="240">UNREGISTERED</text><text fill="#eeeeee" stroke="none" font-family="Arial" font-size="24px" font-style="normal" font-weight="normal" text-decoration="none" x="0" y="270">UNREGISTERED</text><text fill="#eeeeee" stroke="none" font-family="Arial" font-size="24px" font-style="normal" font-weight="normal" text-decoration="none" x="0" y="300">UNREGISTERED</text><text fill="#eeeeee" stroke="none" font-family="Arial" font-size="24px" font-style="normal" font-weight="normal" text-decoration="none" x="0" y="330">UNREGISTERED</text><text fill="#eeeeee" stroke="none" font-family="Arial" font-size="24px" font-style="normal" font-weight="normal" text-decoration="none" x="0" y="360">UNREGISTERED</text><text fill="#eeeeee" stroke="none" font-family="Arial" font-size="24px" font-style="normal" font-weight="normal" text-decoration="none" x="0" y="390">UNREGISTERED</text><text fill="#eeeeee" stroke="none" font-family="Arial" font-size="24px" font-style="normal" font-weight="normal" text-decoration="none" x="0" y="420">UNREGISTERED</text><text fill="#eeeeee" stroke="none" font-family="Arial" font-size="24px" font-style="normal" font-weight="normal" text-decoration="none" x="0" y="450">UNREGISTERED</text><text fill="#eeeeee" stroke="none" font-family="Arial" font-size="24px" font-style="normal" font-weight="normal" text-decoration="none" x="0" y="480">UNREGISTERED</text><text fill="#eeeeee" stroke="none" font-family="Arial" font-size="24px" font-style="normal" font-weight="normal" text-decoration="none" x="0" y="510">UNREGISTERED</text><text fill="#eeeeee" stroke="none" font-family="Arial" font-size="24px" font-style="normal" font-weight="normal" text-decoration="none" x="0" y="540">UNREGISTERED</text><text fill="#eeeeee" stroke="none" font-family="Arial" font-size="24px" font-style="normal" font-weight="normal" text-decoration="none" x="0" y="570">UNREGISTERED</text><text fill="#eeeeee" stroke="none" font-family="Arial" font-size="24px" font-style="normal" font-weight="normal" text-decoration="none" x="0" y="600">UNREGISTERED</text><text fill="#eeeeee" stroke="none" font-family="Arial" font-size="24px" font-style="normal" font-weight="normal" text-decoration="none" x="200" y="0">UNREGISTERED</text><text fill="#eeeeee" stroke="none" font-family="Arial" font-size="24px" font-style="normal" font-weight="normal" text-decoration="none" x="200" y="30">UNREGISTERED</text><text fill="#eeeeee" stroke="none" font-family="Arial" font-size="24px" font-style="normal" font-weight="normal" text-decoration="none" x="200" y="60">UNREGISTERED</text><text fill="#eeeeee" stroke="none" font-family="Arial" font-size="24px" font-style="normal" font-weight="normal" text-decoration="none" x="200" y="90">UNREGISTERED</text><text fill="#eeeeee" stroke="none" font-family="Arial" font-size="24px" font-style="normal" font-weight="normal" text-decoration="none" x="200" y="120">UNREGISTERED</text><text fill="#eeeeee" stroke="none" font-family="Arial" font-size="24px" font-style="normal" font-weight="normal" text-decoration="none" x="200" y="150">UNREGISTERED</text><text fill="#eeeeee" stroke="none" font-family="Arial" font-size="24px" font-style="normal" font-weight="normal" text-decoration="none" x="200" y="180">UNREGISTERED</text><text fill="#eeeeee" stroke="none" font-family="Arial" font-size="24px" font-style="normal" font-weight="normal" text-decoration="none" x="200" y="210">UNREGISTERED</text><text fill="#eeeeee" stroke="none" font-family="Arial" font-size="24px" font-style="normal" font-weight="normal" text-decoration="none" x="200" y="240">UNREGISTERED</text><text fill="#eeeeee" stroke="none" font-family="Arial" font-size="24px" font-style="normal" font-weight="normal" text-decoration="none" x="200" y="270">UNREGISTERED</text><text fill="#eeeeee" stroke="none" font-family="Arial" font-size="24px" font-style="normal" font-weight="normal" text-decoration="none" x="200" y="300">UNREGISTERED</text><text fill="#eeeeee" stroke="none" font-family="Arial" font-size="24px" font-style="normal" font-weight="normal" text-decoration="none" x="200" y="330">UNREGISTERED</text><text fill="#eeeeee" stroke="none" font-family="Arial" font-size="24px" font-style="normal" font-weight="normal" text-decoration="none" x="200" y="360">UNREGISTERED</text><text fill="#eeeeee" stroke="none" font-family="Arial" font-size="24px" font-style="normal" font-weight="normal" text-decoration="none" x="200" y="390">UNREGISTERED</text><text fill="#eeeeee" stroke="none" font-family="Arial" font-size="24px" font-style="normal" font-weight="normal" text-decoration="none" x="200" y="420">UNREGISTERED</text><text fill="#eeeeee" stroke="none" font-family="Arial" font-size="24px" font-style="normal" font-weight="normal" text-decoration="none" x="200" y="450">UNREGISTERED</text><text fill="#eeeeee" stroke="none" font-family="Arial" font-size="24px" font-style="normal" font-weight="normal" text-decoration="none" x="200" y="480">UNREGISTERED</text><text fill="#eeeeee" stroke="none" font-family="Arial" font-size="24px" font-style="normal" font-weight="normal" text-decoration="none" x="200" y="510">UNREGISTERED</text><text fill="#eeeeee" stroke="none" font-family="Arial" font-size="24px" font-style="normal" font-weight="normal" text-decoration="none" x="200" y="540">UNREGISTERED</text><text fill="#eeeeee" stroke="none" font-family="Arial" font-size="24px" font-style="normal" font-weight="normal" text-decoration="none" x="200" y="570">UNREGISTERED</text><text fill="#eeeeee" stroke="none" font-family="Arial" font-size="24px" font-style="normal" font-weight="normal" text-decoration="none" x="200" y="600">UNREGISTERED</text><text fill="#eeeeee" stroke="none" font-family="Arial" font-size="24px" font-style="normal" font-weight="normal" text-decoration="none" x="400" y="0">UNREGISTERED</text><text fill="#eeeeee" stroke="none" font-family="Arial" font-size="24px" font-style="normal" font-weight="normal" text-decoration="none" x="400" y="30">UNREGISTERED</text><text fill="#eeeeee" stroke="none" font-family="Arial" font-size="24px" font-style="normal" font-weight="normal" text-decoration="none" x="400" y="60">UNREGISTERED</text><text fill="#eeeeee" stroke="none" font-family="Arial" font-size="24px" font-style="normal" font-weight="normal" text-decoration="none" x="400" y="90">UNREGISTERED</text><text fill="#eeeeee" stroke="none" font-family="Arial" font-size="24px" font-style="normal" font-weight="normal" text-decoration="none" x="400" y="120">UNREGISTERED</text><text fill="#eeeeee" stroke="none" font-family="Arial" font-size="24px" font-style="normal" font-weight="normal" text-decoration="none" x="400" y="150">UNREGISTERED</text><text fill="#eeeeee" stroke="none" font-family="Arial" font-size="24px" font-style="normal" font-weight="normal" text-decoration="none" x="400" y="180">UNREGISTERED</text><text fill="#eeeeee" stroke="none" font-family="Arial" font-size="24px" font-style="normal" font-weight="normal" text-decoration="none" x="400" y="210">UNREGISTERED</text><text fill="#eeeeee" stroke="none" font-family="Arial" font-size="24px" font-style="normal" font-weight="normal" text-decoration="none" x="400" y="240">UNREGISTERED</text><text fill="#eeeeee" stroke="none" font-family="Arial" font-size="24px" font-style="normal" font-weight="normal" text-decoration="none" x="400" y="270">UNREGISTERED</text><text fill="#eeeeee" stroke="none" font-family="Arial" font-size="24px" font-style="normal" font-weight="normal" text-decoration="none" x="400" y="300">UNREGISTERED</text><text fill="#eeeeee" stroke="none" font-family="Arial" font-size="24px" font-style="normal" font-weight="normal" text-decoration="none" x="400" y="330">UNREGISTERED</text><text fill="#eeeeee" stroke="none" font-family="Arial" font-size="24px" font-style="normal" font-weight="normal" text-decoration="none" x="400" y="360">UNREGISTERED</text><text fill="#eeeeee" stroke="none" font-family="Arial" font-size="24px" font-style="normal" font-weight="normal" text-decoration="none" x="400" y="390">UNREGISTERED</text><text fill="#eeeeee" stroke="none" font-family="Arial" font-size="24px" font-style="normal" font-weight="normal" text-decoration="none" x="400" y="420">UNREGISTERED</text><text fill="#eeeeee" stroke="none" font-family="Arial" font-size="24px" font-style="normal" font-weight="normal" text-decoration="none" x="400" y="450">UNREGISTERED</text><text fill="#eeeeee" stroke="none" font-family="Arial" font-size="24px" font-style="normal" font-weight="normal" text-decoration="none" x="400" y="480">UNREGISTERED</text><text fill="#eeeeee" stroke="none" font-family="Arial" font-size="24px" font-style="normal" font-weight="normal" text-decoration="none" x="400" y="510">UNREGISTERED</text><text fill="#eeeeee" stroke="none" font-family="Arial" font-size="24px" font-style="normal" font-weight="normal" text-decoration="none" x="400" y="540">UNREGISTERED</text><text fill="#eeeeee" stroke="none" font-family="Arial" font-size="24px" font-style="normal" font-weight="normal" text-decoration="none" x="400" y="570">UNREGISTERED</text><text fill="#eeeeee" stroke="none" font-family="Arial" font-size="24px" font-style="normal" font-weight="normal" text-decoration="none" x="400" y="600">UNREGISTERED</text><text fill="#eeeeee" stroke="none" font-family="Arial" font-size="24px" font-style="normal" font-weight="normal" text-decoration="none" x="600" y="0">UNREGISTERED</text><text fill="#eeeeee" stroke="none" font-family="Arial" font-size="24px" font-style="normal" font-weight="normal" text-decoration="none" x="600" y="30">UNREGISTERED</text><text fill="#eeeeee" stroke="none" font-family="Arial" font-size="24px" font-style="normal" font-weight="normal" text-decoration="none" x="600" y="60">UNREGISTERED</text><text fill="#eeeeee" stroke="none" font-family="Arial" font-size="24px" font-style="normal" font-weight="normal" text-decoration="none" x="600" y="90">UNREGISTERED</text><text fill="#eeeeee" stroke="none" font-family="Arial" font-size="24px" font-style="normal" font-weight="normal" text-decoration="none" x="600" y="120">UNREGISTERED</text><text fill="#eeeeee" stroke="none" font-family="Arial" font-size="24px" font-style="normal" font-weight="normal" text-decoration="none" x="600" y="150">UNREGISTERED</text><text fill="#eeeeee" stroke="none" font-family="Arial" font-size="24px" font-style="normal" font-weight="normal" text-decoration="none" x="600" y="180">UNREGISTERED</text><text fill="#eeeeee" stroke="none" font-family="Arial" font-size="24px" font-style="normal" font-weight="normal" text-decoration="none" x="600" y="210">UNREGISTERED</text><text fill="#eeeeee" stroke="none" font-family="Arial" font-size="24px" font-style="normal" font-weight="normal" text-decoration="none" x="600" y="240">UNREGISTERED</text><text fill="#eeeeee" stroke="none" font-family="Arial" font-size="24px" font-style="normal" font-weight="normal" text-decoration="none" x="600" y="270">UNREGISTERED</text><text fill="#eeeeee" stroke="none" font-family="Arial" font-size="24px" font-style="normal" font-weight="normal" text-decoration="none" x="600" y="300">UNREGISTERED</text><text fill="#eeeeee" stroke="none" font-family="Arial" font-size="24px" font-style="normal" font-weight="normal" text-decoration="none" x="600" y="330">UNREGISTERED</text><text fill="#eeeeee" stroke="none" font-family="Arial" font-size="24px" font-style="normal" font-weight="normal" text-decoration="none" x="600" y="360">UNREGISTERED</text><text fill="#eeeeee" stroke="none" font-family="Arial" font-size="24px" font-style="normal" font-weight="normal" text-decoration="none" x="600" y="390">UNREGISTERED</text><text fill="#eeeeee" stroke="none" font-family="Arial" font-size="24px" font-style="normal" font-weight="normal" text-decoration="none" x="600" y="420">UNREGISTERED</text><text fill="#eeeeee" stroke="none" font-family="Arial" font-size="24px" font-style="normal" font-weight="normal" text-decoration="none" x="600" y="450">UNREGISTERED</text><text fill="#eeeeee" stroke="none" font-family="Arial" font-size="24px" font-style="normal" font-weight="normal" text-decoration="none" x="600" y="480">UNREGISTERED</text><text fill="#eeeeee" stroke="none" font-family="Arial" font-size="24px" font-style="normal" font-weight="normal" text-decoration="none" x="600" y="510">UNREGISTERED</text><text fill="#eeeeee" stroke="none" font-family="Arial" font-size="24px" font-style="normal" font-weight="normal" text-decoration="none" x="600" y="540">UNREGISTERED</text><text fill="#eeeeee" stroke="none" font-family="Arial" font-size="24px" font-style="normal" font-weight="normal" text-decoration="none" x="600" y="570">UNREGISTERED</text><text fill="#eeeeee" stroke="none" font-family="Arial" font-size="24px" font-style="normal" font-weight="normal" text-decoration="none" x="600" y="600">UNREGISTERED</text><g transform="translate(-30,-22) scale(1,1)"><path fill="none" stroke="#000000" d="M 528 32 L 656 32 L 656 104 L 528 104 L 528 32" stroke-miterlimit="10"/></g><g transform="translate(-30,-22) scale(1,1)"><path fill="#ffffff" stroke="none" d="M 528 32 L 528 54 L 632.8798828125 54 L 643.8798828125 43 L 643.8798828125 32 L 528 32"/></g><g transform="translate(-30,-22) scale(1,1)"><path fill="none" stroke="#000000" d="M 528 32 L 528 54 L 632.8798828125 54 L 643.8798828125 43 L 643.8798828125 32 L 528 32 L 528 32" stroke-miterlimit="10"/></g><g transform="translate(-30,-22) scale(1,1)"><g><path fill="none" stroke="none"/><text fill="#000000" stroke="none" font-family="Arial" font-size="13px" font-style="normal" font-weight="normal" text-decoration="none" x="563.55908203125" y="48">Book Table</text></g></g><g transform="translate(-30,-22) scale(1,1)"><g><path fill="none" stroke="none"/><text fill="#000000" stroke="none" font-family="Arial" font-size="13px" font-style="normal" font-weight="bold" text-decoration="none" x="531.91455078125" y="46.5">cmp</text></g></g><g transform="translate(-30,-22) scale(1,1)"><path fill="none" stroke="#000000" d="M 528 120 L 655.419921875 120 L 655.419921875 172 L 528 172 L 528 120" stroke-miterlimit="10"/></g><g transform="translate(-30,-22) scale(1,1)"><path fill="#ffffff" stroke="none" d="M 528 120 L 528 142 L 637.919921875 142 L 648.919921875 131 L 648.919921875 120 L 528 120"/></g><g transform="translate(-30,-22) scale(1,1)"><path fill="none" stroke="#000000" d="M 528 120 L 528 142 L 637.919921875 142 L 648.919921875 131 L 648.919921875 120 L 528 120 L 528 120" stroke-miterlimit="10"/></g><g transform="translate(-30,-22) scale(1,1)"><g><path fill="none" stroke="none"/><text fill="#000000" stroke="none" font-family="Arial" font-size="13px" font-style="normal" font-weight="normal" text-decoration="none" x="563.55908203125" y="136">Place Order</text></g></g><g transform="translate(-30,-22) scale(1,1)"><g><path fill="none" stroke="none"/><text fill="#000000" stroke="none" font-family="Arial" font-size="13px" font-style="normal" font-weight="bold" text-decoration="none" x="531.91455078125" y="134.5">cmp</text></g></g><g transform="translate(-30,-22) scale(1,1)"><path fill="none" stroke="#000000" d="M 528 192 L 648 192 L 648 244 L 528 244 L 528 192" stroke-miterlimit="10"/></g><g transform="translate(-30,-22) scale(1,1)"><path fill="#ffffff" stroke="none" d="M 528 192 L 528 214 L 619.84814453125 214 L 630.84814453125 203 L 630.84814453125 192 L 528 192"/></g><g transform="translate(-30,-22) scale(1,1)"><path fill="none" stroke="#000000" d="M 528 192 L 528 214 L 619.84814453125 214 L 630.84814453125 203 L 630.84814453125 192 L 528 192 L 528 192" stroke-miterlimit="10"/></g><g transform="translate(-30,-22) scale(1,1)"><g><path fill="none" stroke="none"/><text fill="#000000" stroke="none" font-family="Arial" font-size="13px" font-style="normal" font-weight="normal" text-decoration="none" x="563.55908203125" y="208">My order</text></g></g><g transform="translate(-30,-22) scale(1,1)"><g><path fill="none" stroke="none"/><text fill="#000000" stroke="none" font-family="Arial" font-size="13px" font-style="normal" font-weight="bold" text-decoration="none" x="531.91455078125" y="206.5">cmp</text></g></g><g transform="translate(-30,-22) scale(1,1)"><path fill="none" stroke="#000000" d="M 528 336 L 644.5908203125 336 L 644.5908203125 388 L 528 388 L 528 336" stroke-miterlimit="10"/></g><g transform="translate(-30,-22) scale(1,1)"><path fill="#ffffff" stroke="none" d="M 528 336 L 528 358 L 627.0908203125 358 L 638.0908203125 347 L 638.0908203125 336 L 528 336"/></g><g transform="translate(-30,-22) scale(1,1)"><path fill="none" stroke="#000000" d="M 528 336 L 528 358 L 627.0908203125 358 L 638.0908203125 347 L 638.0908203125 336 L 528 336 L 528 336" stroke-miterlimit="10"/></g><g transform="translate(-30,-22) scale(1,1)"><g><path fill="none" stroke="none"/><text fill="#000000" stroke="none" font-family="Arial" font-size="13px" font-style="normal" font-weight="normal" text-decoration="none" x="563.55908203125" y="352">Edit Menu</text></g></g><g transform="translate(-30,-22) scale(1,1)"><g><path fill="none" stroke="none"/><text fill="#000000" stroke="none" font-family="Arial" font-size="13px" font-style="normal" font-weight="bold" text-decoration="none" x="531.91455078125" y="350.5">cmp</text></g></g><g transform="translate(-30,-22) scale(1,1)"><path fill="none" stroke="#000000" d="M 528 408 L 653.26171875 408 L 653.26171875 472 L 528 472 L 528 408" stroke-miterlimit="10"/></g><g transform="translate(-30,-22) scale(1,1)"><path fill="#ffffff" stroke="none" d="M 528 408 L 528 430 L 635.76171875 430 L 646.76171875 419 L 646.76171875 408 L 528 408"/></g><g transform="translate(-30,-22) scale(1,1)"><path fill="none" stroke="#000000" d="M 528 408 L 528 430 L 635.76171875 430 L 646.76171875 419 L 646.76171875 408 L 528 408 L 528 408" stroke-miterlimit="10"/></g><g transform="translate(-30,-22) scale(1,1)"><g><path fill="none" stroke="none"/><text fill="#000000" stroke="none" font-family="Arial" font-size="13px" font-style="normal" font-weight="normal" text-decoration="none" x="563.55908203125" y="424">Serve Food</text></g></g><g transform="translate(-30,-22) scale(1,1)"><g><path fill="none" stroke="none"/><text fill="#000000" stroke="none" font-family="Arial" font-size="13px" font-style="normal" font-weight="bold" text-decoration="none" x="531.91455078125" y="422.5">cmp</text></g></g><g transform="translate(-30,-22) scale(1,1)"><path fill="none" stroke="#000000" d="M 528 488 L 653.97900390625 488 L 653.97900390625 540 L 528 540 L 528 488" stroke-miterlimit="10"/></g><g transform="translate(-30,-22) scale(1,1)"><path fill="#ffffff" stroke="none" d="M 528 488 L 528 510 L 636.47900390625 510 L 647.47900390625 499 L 647.47900390625 488 L 528 488"/></g><g transform="translate(-30,-22) scale(1,1)"><path fill="none" stroke="#000000" d="M 528 488 L 528 510 L 636.47900390625 510 L 647.47900390625 499 L 647.47900390625 488 L 528 488 L 528 488" stroke-miterlimit="10"/></g><g transform="translate(-30,-22) scale(1,1)"><g><path fill="none" stroke="none"/><text fill="#000000" stroke="none" font-family="Arial" font-size="13px" font-style="normal" font-weight="normal" text-decoration="none" x="563.55908203125" y="504">Finish Food</text></g></g><g transform="translate(-30,-22) scale(1,1)"><g><path fill="none" stroke="none"/><text fill="#000000" stroke="none" font-family="Arial" font-size="13px" font-style="normal" font-weight="bold" text-decoration="none" x="531.91455078125" y="502.5">cmp</text></g></g><g transform="translate(-30,-22) scale(1,1)"><path fill="none" stroke="#000000" d="M 528 560 L 672 560 L 672 612 L 528 612 L 528 560" stroke-miterlimit="10"/></g><g transform="translate(-30,-22) scale(1,1)"><path fill="#ffffff" stroke="none" d="M 528 560 L 528 582 L 632.13720703125 582 L 643.13720703125 571 L 643.13720703125 560 L 528 560"/></g><g transform="translate(-30,-22) scale(1,1)"><path fill="none" stroke="#000000" d="M 528 560 L 528 582 L 632.13720703125 582 L 643.13720703125 571 L 643.13720703125 560 L 528 560 L 528 560" stroke-miterlimit="10"/></g><g transform="translate(-30,-22) scale(1,1)"><g><path fill="none" stroke="none"/><text fill="#000000" stroke="none" font-family="Arial" font-size="13px" font-style="normal" font-weight="normal" text-decoration="none" x="563.55908203125" y="576">Mark Table</text></g></g><g transform="translate(-30,-22) scale(1,1)"><g><path fill="none" stroke="none"/><text fill="#000000" stroke="none" font-family="Arial" font-size="13px" font-style="normal" font-weight="bold" text-decoration="none" x="531.91455078125" y="574.5">cmp</text></g></g><g transform="translate(-30,-22) scale(1,1)"><path fill="#C0C0C0" stroke="none" d="M 47 289 L 212 289 L 212 406 L 47 406" opacity="0.2"/></g><g transform="translate(-30,-22) scale(1,1)"><path fill="#C0C0C0" stroke="none" d="M 47 289 L 57 279 L 222 279 L 212 289" opacity="0.2"/></g><g transform="translate(-30,-22) scale(1,1)"><path fill="#C0C0C0" stroke="none" d="M 222 279 L 212 289 L 212 406 L 222 396" opacity="0.2"/></g><g transform="translate(-30,-22) scale(1,1)"><path fill="#ffffff" stroke="none" d="M 40 282 L 205 282 L 205 399 L 40 399"/></g><g transform="translate(-30,-22) scale(1,1)"><path fill="#ffffff" stroke="none" d="M 40 282 L 50 272 L 215 272 L 205 282"/></g><g transform="translate(-30,-22) scale(1,1)"><path fill="#ffffff" stroke="none" d="M 215 272 L 205 282 L 205 399 L 215 389"/></g><g transform="translate(-30,-22) scale(1,1)"><path fill="none" stroke="#000000" d="M 40 282 L 205 282 L 205 399 L 40 399 L 40 282" stroke-miterlimit="10"/></g><g transform="translate(-30,-22) scale(1,1)"><path fill="none" stroke="#000000" d="M 40 282 L 50 272 L 215 272 L 205 282 L 40 282" stroke-miterlimit="10"/></g><g transform="translate(-30,-22) scale(1,1)"><path fill="none" stroke="#000000" d="M 215 272 L 205 282 L 205 399 L 215 389 L 215 272" stroke-miterlimit="10"/></g><g transform="translate(-30,-22) scale(1,1)"><g><path fill="none" stroke="none"/><text fill="#000000" stroke="none" font-family="Arial" font-size="13px" font-style="normal" font-weight="bold" text-decoration="none" x="80.3818359375" y="300">Login System</text></g></g><g transform="translate(-30,-22) scale(1,1)"><rect fill="#ffffff" stroke="none" x="48" y="312" width="152" height="64"/></g><g transform="translate(-30,-22) scale(1,1)"><path fill="none" stroke="#000000" d="M 48 312 L 200 312 L 200 376 L 48 376 L 48 312 Z Z" stroke-miterlimit="10"/></g><g transform="translate(-30,-22) scale(1,1)"><g><path fill="none" stroke="none"/><text fill="#000000" stroke="none" font-family="Arial" font-size="13px" font-style="normal" font-weight="normal" text-decoration="none" x="53" y="327">+ Initializes User Login</text></g></g><g transform="translate(-30,-22) scale(1,1)"><g><path fill="none" stroke="none"/><text fill="#000000" stroke="none" font-family="Arial" font-size="13px" font-style="normal" font-weight="normal" text-decoration="none" x="53" y="342">+ Initializes Admin Login</text></g></g><g transform="translate(-30,-22) scale(1,1)"><g><path fill="none" stroke="none"/><text fill="#000000" stroke="none" font-family="Arial" font-size="13px" font-style="normal" font-weight="normal" text-decoration="none" x="53" y="357">+ Sign Up</text></g></g><g transform="translate(-30,-22) scale(1,1)"><path fill="#C0C0C0" stroke="none" d="M 279 177 L 412 177 L 412 286 L 279 286" opacity="0.2"/></g><g transform="translate(-30,-22) scale(1,1)"><path fill="#C0C0C0" stroke="none" d="M 279 177 L 289 167 L 422 167 L 412 177" opacity="0.2"/></g><g transform="translate(-30,-22) scale(1,1)"><path fill="#C0C0C0" stroke="none" d="M 422 167 L 412 177 L 412 286 L 422 276" opacity="0.2"/></g><g transform="translate(-30,-22) scale(1,1)"><path fill="#ffffff" stroke="none" d="M 272 170 L 405 170 L 405 279 L 272 279"/></g><g transform="translate(-30,-22) scale(1,1)"><path fill="#ffffff" stroke="none" d="M 272 170 L 282 160 L 415 160 L 405 170"/></g><g transform="translate(-30,-22) scale(1,1)"><path fill="#ffffff" stroke="none" d="M 415 160 L 405 170 L 405 279 L 415 269"/></g><g transform="translate(-30,-22) scale(1,1)"><path fill="none" stroke="#000000" d="M 272 170 L 405 170 L 405 279 L 272 279 L 272 170" stroke-miterlimit="10"/></g><g transform="translate(-30,-22) scale(1,1)"><path fill="none" stroke="#000000" d="M 272 170 L 282 160 L 415 160 L 405 170 L 272 170" stroke-miterlimit="10"/></g><g transform="translate(-30,-22) scale(1,1)"><path fill="none" stroke="#000000" d="M 415 160 L 405 170 L 405 279 L 415 269 L 415 160" stroke-miterlimit="10"/></g><g transform="translate(-30,-22) scale(1,1)"><g><path fill="none" stroke="none"/><text fill="#000000" stroke="none" font-family="Arial" font-size="13px" font-style="normal" font-weight="bold" text-decoration="none" x="305.052734375" y="188">User Login</text></g></g><g transform="translate(-30,-22) scale(1,1)"><rect fill="#ffffff" stroke="none" x="280" y="208" width="112" height="54"/></g><g transform="translate(-30,-22) scale(1,1)"><path fill="none" stroke="#000000" d="M 280 208 L 392 208 L 392 262 L 280 262 L 280 208 Z Z" stroke-miterlimit="10"/></g><g transform="translate(-30,-22) scale(1,1)"><g><path fill="none" stroke="none"/><text fill="#000000" stroke="none" font-family="Arial" font-size="13px" font-style="normal" font-weight="normal" text-decoration="none" x="285" y="223">+ Book Table</text></g></g><g transform="translate(-30,-22) scale(1,1)"><g><path fill="none" stroke="none"/><text fill="#000000" stroke="none" font-family="Arial" font-size="13px" font-style="normal" font-weight="normal" text-decoration="none" x="285" y="238">+ Place Order</text></g></g><g transform="translate(-30,-22) scale(1,1)"><g><path fill="none" stroke="none"/><text fill="#000000" stroke="none" font-family="Arial" font-size="13px" font-style="normal" font-weight="normal" text-decoration="none" x="285" y="253">+ My Orders.</text></g></g><g transform="translate(-30,-22) scale(1,1)"><path fill="#C0C0C0" stroke="none" d="M 279 409 L 428 409 L 428 518 L 279 518" opacity="0.2"/></g><g transform="translate(-30,-22) scale(1,1)"><path fill="#C0C0C0" stroke="none" d="M 279 409 L 289 399 L 438 399 L 428 409" opacity="0.2"/></g><g transform="translate(-30,-22) scale(1,1)"><path fill="#C0C0C0" stroke="none" d="M 438 399 L 428 409 L 428 518 L 438 508" opacity="0.2"/></g><g transform="translate(-30,-22) scale(1,1)"><path fill="#ffffff" stroke="none" d="M 272 402 L 421 402 L 421 511 L 272 511"/></g><g transform="translate(-30,-22) scale(1,1)"><path fill="#ffffff" stroke="none" d="M 272 402 L 282 392 L 431 392 L 421 402"/></g><g transform="translate(-30,-22) scale(1,1)"><path fill="#ffffff" stroke="none" d="M 431 392 L 421 402 L 421 511 L 431 501"/></g><g transform="translate(-30,-22) scale(1,1)"><path fill="none" stroke="#000000" d="M 272 402 L 421 402 L 421 511 L 272 511 L 272 402" stroke-miterlimit="10"/></g><g transform="translate(-30,-22) scale(1,1)"><path fill="none" stroke="#000000" d="M 272 402 L 282 392 L 431 392 L 421 402 L 272 402" stroke-miterlimit="10"/></g><g transform="translate(-30,-22) scale(1,1)"><path fill="none" stroke="#000000" d="M 431 392 L 421 402 L 421 511 L 431 501 L 431 392" stroke-miterlimit="10"/></g><g transform="translate(-30,-22) scale(1,1)"><g><path fill="none" stroke="none"/><text fill="#000000" stroke="none" font-family="Arial" font-size="13px" font-style="normal" font-weight="bold" text-decoration="none" x="307.285888671875" y="420">Admin Login</text></g></g><g transform="translate(-30,-22) scale(1,1)"><rect fill="#ffffff" stroke="none" x="280" y="424" width="128" height="82"/></g><g transform="translate(-30,-22) scale(1,1)"><path fill="none" stroke="#000000" d="M 280 424 L 408 424 L 408 506 L 280 506 L 280 424 Z Z" stroke-miterlimit="10"/></g><g transform="translate(-30,-22) scale(1,1)"><g><path fill="none" stroke="none"/><text fill="#000000" stroke="none" font-family="Arial" font-size="13px" font-style="normal" font-weight="normal" text-decoration="none" x="285" y="439">+ Edit Menu</text></g></g><g transform="translate(-30,-22) scale(1,1)"><g><path fill="none" stroke="none"/><text fill="#000000" stroke="none" font-family="Arial" font-size="13px" font-style="normal" font-weight="normal" text-decoration="none" x="285" y="454">+ Serve food</text></g></g><g transform="translate(-30,-22) scale(1,1)"><g><path fill="none" stroke="none"/><text fill="#000000" stroke="none" font-family="Arial" font-size="13px" font-style="normal" font-weight="normal" text-decoration="none" x="285" y="469">+ Finish Food</text></g></g><g transform="translate(-30,-22) scale(1,1)"><g><path fill="none" stroke="none"/><text fill="#000000" stroke="none" font-family="Arial" font-size="13px" font-style="normal" font-weight="normal" text-decoration="none" x="285" y="484">+ Mark Table to</text><text fill="#000000" stroke="none" font-family="Arial" font-size="13px" font-style="normal" font-weight="normal" text-decoration="none" x="285" y="497">Free</text></g></g><g transform="translate(-30,-22) scale(1,1)"><g><path fill="none" stroke="none"/><text fill="#000000" stroke="none" font-family="Arial" font-size="13px" font-style="normal" font-weight="normal" text-decoration="none" x="541" y="79">CheckTable() void</text></g></g><g transform="translate(-30,-22) scale(1,1)"><g><path fill="none" stroke="none"/><text fill="#000000" stroke="none" font-family="Arial" font-size="13px" font-style="normal" font-weight="normal" text-decoration="none" x="541" y="94">BookTable() void</text></g></g><g transform="translate(-30,-22) scale(1,1)"><g><path fill="none" stroke="none"/><text fill="#000000" stroke="none" font-family="Arial" font-size="13px" font-style="normal" font-weight="normal" text-decoration="none" x="541" y="159">ShowMenu() void</text></g></g><g transform="translate(-30,-22) scale(1,1)"><g><path fill="none" stroke="none"/><text fill="#000000" stroke="none" font-family="Arial" font-size="13px" font-style="normal" font-weight="normal" text-decoration="none" x="533" y="231">ShowOrders() void</text></g></g><g transform="translate(-30,-22) scale(1,1)"><g><path fill="none" stroke="none"/></g></g><g transform="translate(-30,-22) scale(1,1)"><g><path fill="none" stroke="none"/><text fill="#000000" stroke="none" font-family="Arial" font-size="13px" font-style="normal" font-weight="normal" text-decoration="none" x="541" y="375">EditItems() void</text></g></g><g transform="translate(-30,-22) scale(1,1)"><g><path fill="none" stroke="none"/><text fill="#000000" stroke="none" font-family="Arial" font-size="13px" font-style="normal" font-weight="normal" text-decoration="none" x="541" y="447">MarkServed() void</text></g></g><g transform="translate(-30,-22) scale(1,1)"><g><path fill="none" stroke="none"/><text fill="#000000" stroke="none" font-family="Arial" font-size="13px" font-style="normal" font-weight="normal" text-decoration="none" x="541" y="462">DeleteOrder() void</text></g></g><g transform="translate(-30,-22) scale(1,1)"><g><path fill="none" stroke="none"/><text fill="#000000" stroke="none" font-family="Arial" font-size="13px" font-style="normal" font-weight="normal" text-decoration="none" x="533" y="527">MarkFinished() void</text></g></g><g transform="translate(-30,-22) scale(1,1)"><g><path fill="none" stroke="none"/></g></g><g transform="translate(-30,-22) scale(1,1)"><g><path fill="none" stroke="none"/><text fill="#000000" stroke="none" font-family="Arial" font-size="13px" font-style="normal" font-weight="normal" text-decoration="none" x="533" y="599">marktablefree() void</text></g></g><g transform="translate(-30,-22) scale(1,1)"><path fill="none" stroke="#000000" d="M 331 281 L 320 336 L 335 391" stroke-miterlimit="10"/></g><g transform="translate(-30,-22) scale(1,1)"><path fill="#000000" stroke="none" d="M 338 327 L 348 332 L 338 337"/></g><g transform="translate(-30,-22) scale(1,1)"><path fill="none" stroke="#000000" d="M 320 336 L 218 336" stroke-miterlimit="10"/></g><g transform="translate(-30,-22) scale(1,1)"><path fill="#C0C0C0" stroke="none" d="M 535 281 L 660 281 L 660 326 L 535 326" opacity="0.2"/></g><g transform="translate(-30,-22) scale(1,1)"><path fill="#C0C0C0" stroke="none" d="M 535 281 L 545 271 L 670 271 L 660 281" opacity="0.2"/></g><g transform="translate(-30,-22) scale(1,1)"><path fill="#C0C0C0" stroke="none" d="M 670 271 L 660 281 L 660 326 L 670 316" opacity="0.2"/></g><g transform="translate(-30,-22) scale(1,1)"><path fill="#ffffff" stroke="none" d="M 528 274 L 653 274 L 653 319 L 528 319"/></g><g transform="translate(-30,-22) scale(1,1)"><path fill="#ffffff" stroke="none" d="M 528 274 L 538 264 L 663 264 L 653 274"/></g><g transform="translate(-30,-22) scale(1,1)"><path fill="#ffffff" stroke="none" d="M 663 264 L 653 274 L 653 319 L 663 309"/></g><g transform="translate(-30,-22) scale(1,1)"><path fill="none" stroke="#000000" d="M 528 274 L 653 274 L 653 319 L 528 319 L 528 274" stroke-miterlimit="10"/></g><g transform="translate(-30,-22) scale(1,1)"><path fill="none" stroke="#000000" d="M 528 274 L 538 264 L 663 264 L 653 274 L 528 274" stroke-miterlimit="10"/></g><g transform="translate(-30,-22) scale(1,1)"><path fill="none" stroke="#000000" d="M 663 264 L 653 274 L 653 319 L 663 309 L 663 264" stroke-miterlimit="10"/></g><g transform="translate(-30,-22) scale(1,1)"><g><path fill="none" stroke="none"/><text fill="#000000" stroke="none" font-family="Arial" font-size="13px" font-style="normal" font-weight="bold" text-decoration="none" x="568.983154296875" y="292">Logout</text></g></g><g transform="translate(-30,-22) scale(1,1)"><g><path fill="none" stroke="none"/><text fill="#000000" stroke="none" font-family="Arial" font-size="13px" font-style="normal" font-weight="normal" text-decoration="none" x="557" y="311">logout() void</text></g></g><g transform="translate(-30,-22) scale(1,1)"><path fill="none" stroke="#000000" d="M 464 64 L 466 232" stroke-miterlimit="10"/></g><g transform="translate(-30,-22) scale(1,1)"><path fill="none" stroke="#000000" d="M 464 232 L 528 232" stroke-miterlimit="10"/></g><g transform="translate(-30,-22) scale(1,1)"><path fill="none" stroke="#000000" d="M 464 144 L 526 143" stroke-miterlimit="10"/></g><g transform="translate(-30,-22) scale(1,1)"><path fill="none" stroke="#000000" d="M 464 64 L 526 63" stroke-miterlimit="10"/></g><g transform="translate(-30,-22) scale(1,1)"><path fill="none" stroke="#000000" d="M 480 224 L 480 224" stroke-miterlimit="10"/></g><g transform="translate(-30,-22) scale(1,1)"><path fill="none" stroke="#000000" d="M 408 176 L 464 176" stroke-miterlimit="10"/></g><g transform="translate(-30,-22) scale(1,1)"><path fill="none" stroke="#000000" d="M 528 232 L 464 232 L 464 288 L 528 288" stroke-miterlimit="10" stroke-dasharray="3"/></g><g transform="translate(-30,-22) scale(1,1)"><path fill="none" stroke="#000000" d="M 517.8373251423759 292.209517756016 L 528 288 L 517.8373251423758 283.790482243984" stroke-miterlimit="10"/></g><g transform="translate(-30,-22) scale(1,1)"><g><path fill="none" stroke="none"/><text fill="#000000" stroke="none" font-family="Arial" font-size="13px" font-style="normal" font-weight="normal" text-decoration="none" x="466.5" y="264">«deploy»</text></g></g><g transform="translate(-30,-22) scale(1,1)"><path fill="none" stroke="#000000" d="M 528 368 L 472 368 L 472 304 L 528 304" stroke-miterlimit="10" stroke-dasharray="3"/></g><g transform="translate(-30,-22) scale(1,1)"><path fill="none" stroke="#000000" d="M 517.8373251423759 308.209517756016 L 528 304 L 517.8373251423758 299.790482243984" stroke-miterlimit="10"/></g><g transform="translate(-30,-22) scale(1,1)"><g><path fill="none" stroke="none"/><text fill="#000000" stroke="none" font-family="Arial" font-size="13px" font-style="normal" font-weight="normal" text-decoration="none" x="471.115966796875" y="358">«deploy»</text></g></g><g transform="translate(-30,-22) scale(1,1)"><path fill="none" stroke="#000000" d="M 472 368 L 473 593" stroke-miterlimit="10"/></g><g transform="translate(-30,-22) scale(1,1)"><path fill="none" stroke="#000000" d="M 472 592 L 531 592" stroke-miterlimit="10"/></g><g transform="translate(-30,-22) scale(1,1)"><path fill="none" stroke="#000000" d="M 472 368 L 528 368" stroke-miterlimit="10"/></g><g transform="translate(-30,-22) scale(1,1)"><path fill="none" stroke="#000000" d="M 472 448 L 530 448" stroke-miterlimit="10"/></g><g transform="translate(-30,-22) scale(1,1)"><path fill="none" stroke="#000000" d="M 472 512 L 530 513" stroke-miterlimit="10"/></g><g transform="translate(-30,-22) scale(1,1)"><path fill="none" stroke="#000000" d="M 416 552 L 416 552" stroke-miterlimit="10"/></g><g transform="translate(-30,-22) scale(1,1)"><path fill="none" stroke="#000000" d="M 424 424 L 472 425" stroke-miterlimit="10"/></g><g transform="translate(-30,-22) scale(1,1)"><path fill="none" stroke="#000000" d="M 224 552 L 224 552" stroke-miterlimit="10"/></g><g transform="translate(-30,-22) scale(1,1)"><path fill="none" stroke="#000000" d="M 472 408 L 472 408" stroke-miterlimit="10"/></g></g></svg>